# xmcd CD database file
#
# Track frame offsets:
#	150
#	12407
#	27315
#	76177
#	94482
#	109232
#	143427
#	156315
#	180727
#	203857
#	228267
#	260070
#	287212
#
# Disc length: 4060 seconds
#
# Revision: 1
# Processed by: cddbd v1.5.1PL2 Copyright (c) Steve Scherf et al.
# Submitted via: CDex 1.51
#
DISCID=b30fda0d
DTITLE=The Kingsmen - Georgia Live!
DYEAR=1995
DGENRE=Southern Gospel
TTITLE0=Give The World A Smile
TTITLE1=Moses
TTITLE2=Behold The Master Cometh
TTITLE3=I'll Pray For You
TTITLE4=Mention The Name
TTITLE5=In The Garden
TTITLE6=Wicked Path Of Sin
TTITLE7=Beautiful Star Of Bethlehem
TTITLE8=What Did He Ever See In Me
TTITLE9=First Step
TTITLE10=What A Friend
TTITLE11=Little Is Much
TTITLE12=The Son Will Rise
EXTD=YEAR: 1995
EXTT0=
EXTT1=
EXTT2=
EXTT3=
EXTT4=
EXTT5=
EXTT6=
EXTT7=
EXTT8=
EXTT9=
EXTT10=
EXTT11=
EXTT12=
PLAYORDER=
